PathFileType	4	(X/Y/Z)	pose_F01_0-96.trc
DataRate	CameraRate	NumFrames	NumMarkers	Units	OrigDataRate	OrigDataStartFrame	OrigNumFrames
30	30	7	21	m	30	24	96
Frame#	Time	CHip			RHip			RKnee			RAnkle			RBigToe			RSmallToe			RHeel			LHip			LKnee			LAnkle			LBigToe			LSmallToe			LHeel			Neck			Nose			RShoulder			RElbow			RWrist			LShoulder			LElbow			LWrist			
		X1	Y1	Z1	X2	Y2	Z2	X3	Y3	Z3	X4	Y4	Z4	X5	Y5	Z5	X6	Y6	Z6	X7	Y7	Z7	X8	Y8	Z8	X9	Y9	Z9	X10	Y10	Z10	X11	Y11	Z11	X12	Y12	Z12	X13	Y13	Z13	X14	Y14	Z14	X15	Y15	Z15	X16	Y16	Z16	X17	Y17	Z17	X18	Y18	Z18	X19	Y19	Z19	X20	Y20	Z20	X21	Y21	Z21	
24	0.8	-0.16345980384840966	1.76235069535452	-0.5034504373882119	-0.17388634832787575	1.7624697378521728	-0.45546730752598125	-0.22268635281425228	1.667031378010177	-0.46639586907269226	-0.16689350220196125	1.57711560075648	-0.4413535287827655							-0.15303613227776783	1.570653890746397	-0.4289152611258049	-0.15099973222815588	1.763525926179707	-0.556957475638133	-0.20131616243346218	1.666584121256401	-0.5737142001292901	-0.14661313149276803	1.57502594484694	-0.5381518406443012	-0.18639083122807643	1.5434185242425726	-0.5624244346556764	-0.17532757997741952	1.5477265440158512	-0.5696450537446712	-0.13461269255612401	1.568303190418795	-0.5327446048481176	-0.18079339288546042	1.9070802045476825	-0.5467516064196999	-0.22233217283046838	1.9672524400385618	-0.5720863917434208	-0.20000847111026948	1.904689185104904	-0.4642867715895389	-0.2086814552740247	1.8239313175889145	-0.42417387036379023	-0.22648775979918162	1.7476355094349658	-0.3987988835124283	-0.16021810763227542	1.9081903668532576	-0.6323136600049327	-0.14215525390198044	1.8233693359553014	-0.6467045046138102	-0.15679564192245196	1.7437851396363244	-0.6469887403750555
25	0.8333333333333334	-0.16291721548775387	1.7572165049634219	-0.4988660336451407	-0.1705251108242189	1.7582982207128632	-0.44104243067396875	-0.2240818661511735	1.6656300341883108	-0.4696477401839428	-0.16689350220196125	1.57711560075648	-0.4413535287827655							-0.1533148754837565	1.5746418089201268	-0.42924346063581825	-0.15069476970320841	1.7569582269444775	-0.5521477538560849	-0.20623019507824936	1.6658737313983925	-0.5812396900049484	-0.1466252996948961	1.5749127609743776	-0.5381049512099308	-0.18665596298491394	1.5420120734512623	-0.5617940047474568	-0.17559364381080692	1.5463753752285325	-0.5690257702032385	-0.13472004549985955	1.5684385593681063	-0.5326858612419357	-0.1851997794338672	1.8901124711085813	-0.5396715238384289	-0.22592977085037758	1.9515210426086682	-0.5708589278281081	-0.20422856953048826	1.8878990347260962	-0.46566893859971953	-0.2085118803557328	1.8088206606932276	-0.42209054262457374	-0.23072342651720962	1.7351913230488833	-0.40150753218515606	-0.16491498263568471	1.8923383850563607	-0.6255307430116481	-0.14575782419547728	1.8036803244921864	-0.6446885249591122	-0.1626201409759662	1.7229040111212643	-0.6423834376611464
26	0.8666666666666667	-0.1579736427349776	1.7490292690495832	-0.4988069730118671	-0.16639087327456312	1.7482233577673276	-0.43520661292924234	-0.22161351753330968	1.6600717371125253	-0.47171918911261057	-0.16689350220196125	1.57711560075648	-0.4413535287827655							-0.15372710460706088	1.5764925630489581	-0.429389744683335	-0.1465336566527073	1.7511351261449961	-0.5558244254189791	-0.20340470230553948	1.662896706248469	-0.5880352043090207	-0.14687925318931533	1.5737937817868755	-0.5376036037212781	-0.1831913027518453	1.5420800999517321	-0.5617244104601173	-0.17555761811931395	1.5464089416947733	-0.5689745601616047	-0.132769867527772	1.566366600111647	-0.5346331698852764	-0.19026764148312442	1.8804538737073282	-0.5453968689722585	-0.2341661250572372	1.9347854466275622	-0.5764883768781146	-0.20754821216709152	1.8788505706012109	-0.4653257277700233	-0.21344403219801772	1.7951497183418954	-0.4188841520301422	-0.2308767079964675	1.724403102797363	-0.40010711926864456	-0.16812017783957073	1.878556803509286	-0.6243266375984772	-0.14904537724614184	1.7956908663045301	-0.6566222662604948	-0.16153285239344198	1.7085932501504957	-0.646021059984445
27	0.9	-0.1609646177651395	1.7419490743728088	-0.49013811529040596	-0.16837808906301668	1.7422776384129586	-0.43209908757907367	-0.22187574372078045	1.6563012683938338	-0.471145525098851	-0.16689350220196125	1.57711560075648	-0.4413535287827655							-0.15462001470760295	1.5761429425988422	-0.4327933745147765	-0.15046804240748446	1.7428239289392502	-0.5503347779374995	-0.20549611060616035	1.6600964712620394	-0.5855994889940611	-0.14593506933451195	1.5736055202510273	-0.5343607014230033	-0.18356652150709313	1.5415013939825277	-0.5608161248431177	-0.17558550729763175	1.5463218224946456	-0.5688492474223249	-0.13130675800392708	1.5688449732713203	-0.5273466999080698	-0.1916146256539674	1.8685148299536036	-0.5469589312109603	-0.23748372510700613	1.9261023789143623	-0.576374701772188	-0.2105646338510573	1.8669016618480072	-0.4644133655404426	-0.21393185932509734	1.786449886226389	-0.41770047239907226	-0.23102998947572542	1.7136148825458426	-0.398706706352133	-0.16853740688835417	1.869267917467812	-0.6230823791754108	-0.14734727241606987	1.7839247022857754	-0.6570851031379378	-0.16531739169611576	1.7014584875866507	-0.6452949191568004
28	0.9333333333333333	-0.15651685533703463	1.7419639276127492	-0.49506810870527085	-0.164216321456439	1.7412036831110365	-0.436634060408567	-0.22417836293117654	1.6577381795498747	-0.48657895382870764	-0.16689350220196125	1.57711560075648	-0.4413535287827655							-0.15519435649211685	1.5786631532868425	-0.43255889562024175	-0.1482313857216798	1.7426011849375	-0.5527422029140711	-0.20342505155074544	1.6602306221580627	-0.587886816134135	-0.14685368797910908	1.5737601865855635	-0.5374753023151023	-0.18539856045037542	1.5403588831104247	-0.558975905577407	-0.17562571505804253	1.5465252660672817	-0.5687752389135738	-0.13422467743616504	1.56874170168375	-0.5284906370138763	-0.1925101583743652	1.8646625961981107	-0.549546201678634	-0.2386686307896707	1.9134067017784575	-0.5776977968472258	-0.21064921340018145	1.8642431971130424	-0.46408586105056826	-0.21415903453821197	1.7828928011795289	-0.4170718215400082	-0.2311832709549833	1.7028266622943222	-0.3973062934356215	-0.16939710439183722	1.86596354612761	-0.6256679658031323	-0.1497816894066789	1.777168338363849	-0.6537608706933801	-0.16451543901027685	1.6957143068892833	-0.6413646973919163
29	0.9666666666666667	-0.15668228350201896	1.7402797703814463	-0.4947262319152848	-0.1662676656967065	1.73937483007053	-0.43404115706446594	-0.2231297358167778	1.6577162193586588	-0.4832477115022401	-0.1666877532271284	1.5762351216556565	-0.4414440356013453							-0.15598107005471165	1.5779307880778908	-0.4360077675939583	-0.148582540361503	1.739700106818002	-0.5520777492092048	-0.202895931954138	1.6594878453712643	-0.5884998164947	-0.1468018258626304	1.5738543745847016	-0.5375899532503736	-0.18343892723079186	1.5436232572642257	-0.5614755383308299	-0.1756050827201163	1.5466216825720598	-0.5688479395777922	-0.13175018890865936	1.5659830359571336	-0.5316540346325396	-0.19469274299892	1.8607111042533302	-0.546803465209977	-0.23890930475935435	1.9095076547565728	-0.5772276435624092	-0.21081070488758066	1.860368312480039	-0.46351102021301743	-0.2147412814558352	1.7792529762677411	-0.41634571940725806	-0.23472631028120805	1.6971667285903866	-0.406366384790209	-0.17158923031661147	1.8605631705531478	-0.622683146791121	-0.15032105579746108	1.7762020682570743	-0.653245486488913	-0.1653339134117019	1.6961038864156335	-0.6404532814352641
30	1.0	-0.15479041900536666	1.7417394268049575	-0.49691561854276356	-0.16349180648500336	1.7405736177959423	-0.4330944065967668	-0.22394938123391875	1.6592017833111996	-0.47803079128423953	-0.1666877532271284	1.5762351216556565	-0.4414440356013453							-0.15429182930851357	1.5750725000944792	-0.4328481327895366	-0.14542323166770663	1.741108342129303	-0.5514954964642004	-0.20247495134673427	1.663007047175824	-0.5849910304256135	-0.14705437188175008	1.5723558606579267	-0.5369026714080392	-0.18421381941247525	1.542891864946653	-0.5645365731994897	-0.17559255040964103	1.5464550522498268	-0.5688583094473749	-0.13183477168347632	1.5665699280536514	-0.5313174791755665	-0.19240861765070305	1.8608853265607523	-0.5489229552626838	-0.23995744038938957	1.9097488281055368	-0.5720293504533076	-0.20885417352334648	1.85793639896392	-0.46526749771468995	-0.21243558825098457	1.7797604079184266	-0.4187564624811875	-0.2289540345539716	1.6979700662963908	-0.39930668282171344	-0.17125142581563532	1.8603782143183396	-0.6227577427403798	-0.14896392922853546	1.7771179770413177	-0.6506108534245301	-0.16211231222423256	1.6976747716227	-0.6399113748701939
